<svg xmlns="http://www.w3.org/2000/svg" xmlns:xlink="http://www.w3.org/1999/xlink" width="1202.69" height="347.532" viewBox="0 0 1202.69 347.532">
  <defs>
    <linearGradient id="linear-gradient" x1="0.139" y1="0.949" x2="0.5" y2="0.267" gradientUnits="objectBoundingBox">
      <stop offset="0" stop-color="#4c12a1"/>
      <stop offset="1" stop-color="#d74388"/>
    </linearGradient>
    <linearGradient id="linear-gradient-2" x1="0.5" x2="0.5" y2="1" gradientUnits="objectBoundingBox">
      <stop offset="0" stop-color="#79c300"/>
      <stop offset="1" stop-color="#0a9856"/>
    </linearGradient>
    <linearGradient id="linear-gradient-3" x1="1.097" y1="0.46" x2="0.209" y2="1.154" gradientUnits="objectBoundingBox">
      <stop offset="0" stop-color="#5fb814"/>
      <stop offset="1" stop-color="#a63291"/>
    </linearGradient>
    <linearGradient id="linear-gradient-4" x1="0.424" y1="0.19" x2="0.167" y2="0.5" gradientUnits="objectBoundingBox">
      <stop offset="0" stop-color="#2e334e" stop-opacity="0"/>
      <stop offset="1" stop-color="#2e334e" stop-opacity="0.255"/>
    </linearGradient>
    <linearGradient id="linear-gradient-5" x1="0.759" y1="0.615" x2="0.361" y2="0.499" xlink:href="#linear-gradient-4"/>
    <linearGradient id="linear-gradient-6" x1="0.5" x2="0.932" gradientUnits="objectBoundingBox">
      <stop offset="0" stop-color="#2e334e" stop-opacity="0.255"/>
      <stop offset="1" stop-color="#2e334e" stop-opacity="0"/>
    </linearGradient>
    <linearGradient id="linear-gradient-7" x1="1" y1="0" x2="0.266" y2="0" xlink:href="#linear-gradient-4"/>
  </defs>
  <g id="Group_1016" data-name="Group 1016" transform="translate(-358.68 -428.161)">
    <path id="Path_222" data-name="Path 222" d="M221.79,462.581A20.529,20.529,0,0,1,210.2,459c-7.155-4.8-10.647-12.83-9.584-22.027.542-4.692,3.253-15.718,16.111-28.767-23.567,6.082-40.016,6.374-50.087.929A20.544,20.544,0,0,1,155.78,393.82c-1.441-8.969,1.218-16.63,7.688-22.152,8.437-7.2,23.077-10.369,43.537-9.442-13.808-8.6-30.863-21.733-36.433-36.7-3.086-8.287-2.273-16.24,2.348-23,4.768-6.972,13.1-10.563,22.84-9.876,6.833.488,25.278,4.295,47.68,29.007-7.306-24.979-10.082-46.5-2.946-59.627a24.337,24.337,0,0,1,17.4-12.46c8.449-1.624,16.378,1.228,22.334,8.031,15.952,18.225,18.03,66.648,5.715,112.158,25.854-8.923,62.173-18.325,77.737-7.569a17.746,17.746,0,0,1,7.817,15.231,18.013,18.013,0,0,1-7.324,14.715c-9.307,7.172-26.631,8.047-44.486,6.388,11.587,8.734,19.68,18.283,22.419,27.272,2.135,7,1.1,13.477-2.988,18.726a17.171,17.171,0,0,1-16.541,6.6c-14.807-2.068-33.142-21.313-47.814-49.025-13.394,32.25-29.744,53.849-45.286,59.144A23.816,23.816,0,0,1,221.79,462.581Zm39.93-67.183c-24.012,11.8-44.808,27.877-46.586,43.253-.432,3.731.648,6.493,3.209,8.211,1.26.847,3.13,1.671,6.424.551C234.418,444.125,248.8,426.9,261.719,395.4Zm26.805,1.486c13.8,25.52,28.744,38.746,36.078,39.77a2.684,2.684,0,0,0,2.991-1.109c.739-.949,1.467-2.429.536-5.481C325.3,420.778,310.442,407.319,288.524,396.884ZM200.253,376.69c-12.715,0-22.481,1.987-27.3,6.1-1.8,1.539-3.539,3.778-2.747,8.716a5.955,5.955,0,0,0,3.377,4.774c12.259,6.634,46.977-3.037,73.647-13.286C229.9,378.842,213.481,376.69,200.253,376.69Zm98.913,4.085c24.6,4.536,48.175,5.888,56.09-.209a3.509,3.509,0,0,0,1.629-3.131,3.31,3.31,0,0,0-1.511-3.214C349.415,370.1,330.12,370.968,299.166,380.774Zm-105.829-73.59c-2.947,0-6.384.721-8.353,3.6-1.2,1.751-2.574,4.656-.714,9.648,6.141,16.494,38.988,38,75.334,50.355-24.549-44.989-49.881-62.479-64.884-63.551C194.277,307.2,193.813,307.185,193.337,307.185Zm69.207-43.451a9.86,9.86,0,0,0-1.883.2,9.671,9.671,0,0,0-7.327,5.09c-8.719,16.034,7.481,61.666,19.652,92.582,10.515-42.006,7.191-81.863-3.753-94.368C266.788,264.441,264.492,263.734,262.544,263.734Z" transform="translate(203.281 179.029)" fill="url(#linear-gradient)"/>
    <path id="Path_249" data-name="Path 249" d="M370.738,458.171a285.968,285.968,0,0,0-10.685,42.363,25.718,25.718,0,0,0,3.042-1.955s-5.286,12.737-6.228,14.661-8.634,39.069-8.634,39.069,9.808-12.322,10.92-14.363,8.028-41.766,8.028-41.766l6.837-32.91Z" transform="translate(101.798 75.897)" fill="rgba(46,51,78,0.25)"/>
    <path id="Path_248" data-name="Path 248" d="M34.971,332.605c-10.4-2.378-23.988-12.3-29.659-46.078-6.793-40.454-7.08-87.507-.813-132.5,8.557-61.41,26.05-98.262,39.217-118.365C65.412,2.547,91.184-4.78,107.107,2.651c16.882,7.881,17.858,27.255,13.567,41.45-5.735,18.965-23.245,38.924-52.046,59.323a348.34,348.34,0,0,1-36.214,22.335c-2.239,10.043-4.131,20.533-5.641,31.376-5.962,42.783-5.707,87.413.715,125.668,3.584,21.349,10.235,27.365,12.5,27.881,1.359.316,4.177-1.4,6.919-5.272,10.543-14.9,15.83-52.9-10.732-98.554a50.842,50.842,0,0,1-4.109-6.877,11.243,11.243,0,0,1,19.648-10.854q1.668,2.636,3.217,5.265c2.695,3.727,7.436,8.908,13.9,10.692,6.164,1.7,13.333-.048,21.3-5.194,4.794-3.1,16.5-14.6,30.979-31.366a512.359,512.359,0,0,1,13.534-55.614c7.263-24.006,26.672-81.29,49.924-94.7,8.5-4.9,17.519-4.355,24.742,1.508,4.922,3.994,10.63,11.687,9.873,25.652-1.513,27.89-28.584,69.91-51.027,100.25-8.48,11.464-17.376,22.691-25.921,32.831-1.33,8.131-2.284,15.771-2.823,22.7-1.59,20.389.873,29.3,2.388,31.856,3.422-.917,18.923-8.244,56.606-66.522a11.263,11.263,0,0,1,1.758-2.106A103.982,103.982,0,0,1,219.895,136.1a11.243,11.243,0,1,1,16.013,15.787C214.8,173.3,210.88,201.358,214.781,209.773c4.4,9.484,10.493,10.859,14.7,11.068,10.089.5,25.949-7.073,36.637-18.735-12.6-12.037-18.089-31.683-18.836-47.221-.937-19.445,4.908-34.641,15.634-40.649,4.811-2.7,14.876-5.861,28.235,3.231a11.322,11.322,0,0,1,1.384,1.109,31.857,31.857,0,0,1,8.645,9.834c6.988,12.2,6.287,27.714,4.466,38.578a114.987,114.987,0,0,1-7.375,25.1,11.3,11.3,0,0,0,2.6-.746c7.673-3.167,20.209-15.931,37.928-57.123q3.089-8.389,7-17.047a11.243,11.243,0,0,1,20.713,8.734q-3.555,9.071-7.008,17.123c-7.483,20.541-9.5,35.826-9.733,45.717-.452,19.35,5.389,26.463,7.191,28.183,1.763,1.682,4.213,3.068,9.035.613,8.233-4.191,23.077-31.7,37.732-83.707.084-.3.138-.486.155-.547a11.243,11.243,0,0,1,21.633,6.136c-.124.44-.249.886-.374,1.326-6.912,24.848-12.926,65.323-4.336,76.121.807,1.013,1.772,1.907,4.741,1.76,8.079-.416,16.945-7.958,23.716-20.175,11.181-20.172,16.494-53.985,1.734-80.55a11.243,11.243,0,1,1,19.656-10.92c13.056,23.5,14.241,50.578,8.993,73.751-.9,10.964.718,18.589,4.654,21.063,2.672,1.68,6.835,1.948,11.814,1.161a68.872,68.872,0,0,1,.788-26.108c3.286-15.972,11.324-33.173,22.056-47.194a68.536,68.536,0,0,1,24.941-19.772c13.535-6.149,27.111-5.832,38.226.895a26.785,26.785,0,0,1,13.311,22.389c.474,11.4-5.123,24.869-16.634,40.045-8.527,11.241-20.019,22.716-29.99,29.947a147.483,147.483,0,0,1-19.739,11.873c8.682,5.991,18.646,6.4,30.3,1.266a75.325,75.325,0,0,0,20.651-14.157,11.38,11.38,0,0,1,.876-.817c32.537-27.32,38.028-96.073,38.08-96.764a11.244,11.244,0,0,1,21.767-3.04,35.176,35.176,0,0,0,6.829,10.527c4.976,5.095,10.166,6.441,16.831,4.365,4.2-1.3,12-2.565,17.1,3.686,6.51,7.983,1.482,17.094-6.128,30.886-18.459,33.454-25.283,55.208-5.545,67.4,4.972,3.068,9.709,3.776,14.907,2.213,18.312-5.5,35.759-35.674,40.937-46.84a11.243,11.243,0,0,1,20.412,9.433c-2.326,5.041-23.638,49.533-54.844,58.933a40.324,40.324,0,0,1-11.662,1.752A40.745,40.745,0,0,1,658,237.515c-12.758-7.881-26.83-23.247-21.421-51.7,3.218-16.921,12.395-33.551,19.1-45.694q.111-.2.226-.411a36.434,36.434,0,0,1-18.415-6.788c-5.164,25.809-16.725,63.983-41.747,85.289-3.471,3.44-25.041,23.743-50.833,24.153q-.411.006-.822.006c-13.139,0-24.975-5.022-35.2-14.937a44.01,44.01,0,0,1-3.243-3.5c-13.579,3.318-24.756,2.286-33.322-3.1a27.552,27.552,0,0,1-6.749-5.92c-10.451,15.979-24.372,25.424-38.88,26.171-9.663.495-17.787-3.037-23.5-10.224a39.012,39.012,0,0,1-7.012-15.134q-9.91,16.7-19.992,21.854a32.854,32.854,0,0,1-14.9,3.761,28.4,28.4,0,0,1-19.861-8.151c-8.167-7.8-12.789-19.771-13.919-34.6-5.951,6.564-11.924,11-18.06,13.537a33.941,33.941,0,0,1-23.259.977c-12.868,15.9-35.107,30.248-55.678,30.25q-1.079,0-2.151-.055c-15.064-.75-27.131-9.3-33.98-24.068a31.774,31.774,0,0,1-1.783-4.921c-23.89,31.473-41.318,43.94-55.93,40.853-7.107-1.5-16.2-7.216-19.171-25.916a116.539,116.539,0,0,1-.962-22.628c-5.7,5.6-10.577,9.817-14.207,12.16-10.881,7.028-21.556,10.152-31.862,9.329,12.872,38.4,7.856,71.836-5.207,90.294-6.748,9.534-15.785,14.808-24.947,14.808A23.837,23.837,0,0,1,34.971,332.605ZM536.807,143.322c-10.33,13.5-20.413,35.476-19.039,52.231a119.688,119.688,0,0,0,17.837-10.6c17.249-12.508,37.874-38.43,37.356-50.851a4.288,4.288,0,0,0-2.483-4.086,14.271,14.271,0,0,0-7.514-2.024C552.879,127.992,541.684,136.954,536.807,143.322ZM269.759,154.157c.581,10.774,3.828,20.827,8.5,27.564,6.513-16.252,8.236-33.71,3.41-42.138-1.287-2.248-3.317-4.512-8.488-4.989C271.621,136.722,269.161,143.052,269.759,154.157ZM176.1,66.533c-7.873,16.4-15.643,37.626-22.151,60.413,26.006-35.979,41.9-66.671,42.777-82.8.118-2.174.006-4.916-1.07-6.414C192.8,39.41,185.691,46.551,176.1,66.533ZM62.527,47.988C54.188,60.72,45.321,80.234,39.3,98.515c23.036-14.432,53.583-40.189,59.853-60.92,2.193-7.254,1.568-13.109-1.554-14.566a7.3,7.3,0,0,0-3.092-.6C87.422,22.427,74.612,29.542,62.527,47.988Zm894.286,192.1a11.245,11.245,0,0,1,.99-15.871c11.355-10.02,23.34-46.825,22.9-70.324-.163-8.768-1.988-12.553-2.768-13.407-.612-.008-3.03.153-8.086,3.281-25.855,15.993-47.9,68.622-54.217,87.55a11.249,11.249,0,0,1-18.057,4.92l-.016-.014-.035-.031a11.194,11.194,0,0,1-3.007-4.278c-3.56-8.955-4.769-21-4.579-34.048-2.464,3.139-4.737,6.054-6.781,8.715q-1.095,1.488-2.214,2.9-.494.652-.964,1.28a11.343,11.343,0,0,1-1.173,1.333c-17.681,20.893-39.243,29.137-53.12,29.738q-1.025.044-2.035.046c-12.641,0-23.856-5.2-32.541-15.1-22.308-25.447-11.51-68.12,10.687-97.119a68.53,68.53,0,0,1,24.942-19.772c13.534-6.149,27.11-5.832,38.224.895a26.783,26.783,0,0,1,13.311,22.388c.476,11.4-5.121,24.87-16.633,40.046-8.527,11.241-20.018,22.716-29.99,29.947a11.244,11.244,0,1,1-13.2-18.205c17.248-12.508,37.874-38.431,37.356-50.851a4.293,4.293,0,0,0-2.483-4.086c-11.345-6.868-27.526,5.28-33.672,13.306-16.449,21.493-25.3,53.041-11.633,68.629,4.626,5.277,10.089,7.708,16.689,7.416,10.354-.448,26.606-8.775,38.632-23.889q.887-1.17,1.837-2.406.076-.1.154-.2c3.988-5.192,8.764-11.245,14.1-18.011,4.538-5.753,9.46-11.99,14.576-18.56,2.845-17.61,6.471-33.026,8.451-40.9C907.4,95.762,925.371,30.32,949.539,12.562c9.019-6.63,19.177-6.718,27.166-.235,30.162,24.481-8.839,84.932-61.408,153.147-.7,4.869-1.288,9.6-1.744,14.148,14.053-26.927,29-45.411,44.47-54.98,22.368-13.837,34.081-2.795,38.082,2.592,11.191,15.076,6.772,43.452,3.143,59.024-4.45,19.1-13.766,43.523-26.564,54.819a11.244,11.244,0,0,1-15.87-.991ZM947.182,54.134c-8.025,16.694-15.252,37.573-21.016,59.072,6.644-9.459,12.946-18.932,18.482-28.066,19.966-32.946,22.519-49.8,18.523-54.712C960.649,32.106,954.822,38.24,947.182,54.134Zm77.362,176.794-.169-6.507c0-.1,0-.2,0-.3a11.244,11.244,0,0,1,22.484-.284l.169,6.507c0,.1,0,.2,0,.3a11.244,11.244,0,0,1-10.951,11.232c-.1,0-.2,0-.3,0A11.245,11.245,0,0,1,1024.544,230.928Zm11.212-42.059a11.243,11.243,0,0,1-10.031-12.336c3.055-29.683,11.2-66.136,21.788-97.509,8.448-25.031,21.887-57.061,37.936-67.5a11.244,11.244,0,0,1,12.26,18.852c-16.068,10.449-43.015,84.317-49.617,148.46a11.243,11.243,0,0,1-11.169,10.092A11.38,11.38,0,0,1,1035.756,188.869Z" transform="translate(458.545 442.482)" fill="url(#linear-gradient-2)"/>
    <path id="Path_223" data-name="Path 223" d="M35.691,90.914c-2.378,7.773-3.514,11.335-6.859,27.378,2.652-1.4,5.447-2.957,8.573-4.774,19.46-11.31,42.632-27.868,46.369-32.142,4.28-4.9,2.078-30.444-14.02-16.521S46.186,84.2,35.691,90.914Z" transform="translate(462.13 450.036)" fill="url(#linear-gradient-3)"/>
    <path id="Path_250" data-name="Path 250" d="M364.214,465.893s-3.723,11.961-6.741,27.04-5.125,26.6-5.125,26.6l5.125,7.837s.648-10.954,2.237-23.858L358.3,500.9l1.622.932c.323-2.505.722-5.315,1.166-8.072a289.145,289.145,0,0,1,6.661-30.14Z" transform="translate(133.634 74.993)" fill="rgba(46,51,78,0.25)"/>
    <path id="Path_224" data-name="Path 224" d="M456.078,437.741c7.269,27.341,15.469,46.31,17.51,52.367-13.906-24.154-28.7-37.87-28.7-37.87s-4.674-16.928-5.644-24.358C439.92,423.278,456.078,437.741,456.078,437.741Z" transform="translate(1.785 48.379)" fill="url(#linear-gradient-4)"/>
    <path id="Path_225" data-name="Path 225" d="M16.3,47.2A332.143,332.143,0,0,0,0,0S32.949,9.477,43.631,9.226c9.758,6.756,16.456,24.363,6.514,22.718C23.864,11.635,3.94,2.849,4.708,3.424A226.022,226.022,0,0,0,27.524,38.038,73.7,73.7,0,0,0,39.848,50.928c-.13.877,3.338,8.625,1.338,11.365-1.929,2.65-9.33.031-11.485-.924C23.177,56.137,16.3,47.2,16.3,47.2Z" transform="translate(456.274 560.811) rotate(132)" fill="url(#linear-gradient-5)"/>
    <path id="Path_226" data-name="Path 226" d="M530.324,481.632l-30.465,20.959s21.581-6.822,38.462-6.831,14.807-12.86,7.4-13.923A71.565,71.565,0,0,0,530.324,481.632Z" transform="translate(9.322 55.134)" fill="url(#linear-gradient-6)"/>
    <path id="Path_227" data-name="Path 227" d="M514.716,519.794c-4.176-2.863-13.818-9.947-23.481-14.231,1.848-1.091,5.588-3.078,5.588-3.078s23.424,4.786,42.929,2.92,11.416,13.467,1.163,14.417S527.4,520.794,514.716,519.794Z" transform="translate(8.25 57.768)" fill="url(#linear-gradient-7)"/>
    <path id="Path_228" data-name="Path 228" d="M567.155,547.7a199.594,199.594,0,0,0-4.46,37.984c-7.576,7.544-6.9,7.065-13.688,11.639s-10.9-17.3,0-29.286S567.155,547.7,567.155,547.7Z" transform="translate(12.487 63.389)" fill="rgba(46,51,78,0.15)"/>
    <path id="Path_229" data-name="Path 229" d="M593.07,516.148s-6.611,18.593-11.772,51.784c14.1-16.42,11.249-13.345,18.391-23.1s13.729-58.394,7.226-48.267S593.07,516.148,593.07,516.148Z" transform="translate(19.448 53.131)" fill="rgba(46,51,78,0.15)"/>
    <path id="Path_230" data-name="Path 230" d="M694.956,583.817a59.238,59.238,0,0,0,12.282-20.329,51.859,51.859,0,0,1-7.1-16.619S690,557.383,689.753,568.6,694.956,583.817,694.956,583.817Z" transform="translate(29.732 60.873)" fill="rgba(46,51,78,0.15)"/>
    <path id="Path_231" data-name="Path 231" d="M13.437,0a78.647,78.647,0,0,0,7.477,23.2,18.987,18.987,0,0,0-2.365,9.35S-3.357,20.7.443,13.427,13.437,0,13.437,0Z" transform="translate(753.582 665.679) rotate(-132)" fill="rgba(46,51,78,0.15)"/>
    <path id="Path_232" data-name="Path 232" d="M24.489,5.039S41.83,46.582,60.218,75.756C35.28,36.4,14.6,24.992,14.6,24.992S-6.536,4.3,2.054.884,24.489,5.039,24.489,5.039Z" transform="translate(867.455 679.987) rotate(-132)" fill="rgba(46,51,78,0.15)"/>
    <path id="Path_235" data-name="Path 235" d="M26.021,20.892s1.635,10.637,4.51,26.468a263.425,263.425,0,0,0-28.4-30.813A69.616,69.616,0,0,1,.007,1.875C-.507-7.425,26.021,20.892,26.021,20.892Z" transform="translate(1337.807 653.145) rotate(-132)" fill="rgba(46,51,78,0.15)"/>
    <path id="Path_236" data-name="Path 236" d="M31.7,43.088s2.025,10.4,5.458,21.972c-1.121-.672-26.766-16.767-30.515-32.265S-.257,1.29.017,0C25.406,32,31.7,43.088,31.7,43.088Z" transform="translate(1373.904 607.939) rotate(-132)" fill="rgba(46,51,78,0.15)"/>
    <path id="Path_233" data-name="Path 233" d="M27.739,14.327a36.9,36.9,0,0,0-5.911,6.565C11.885,15.232,0,14.473,0,14.473A56.622,56.622,0,0,1,9.133,1.326C15.181-5.172,27.739,14.327,27.739,14.327Z" transform="translate(953.745 675.863) rotate(-132)" fill="rgba(46,51,78,0.15)"/>
    <path id="Path_234" data-name="Path 234" d="M26.016,5.264a88.664,88.664,0,0,0-2.909,12.657c-.439.1-23.988,10.339-23.081,1.525A109.6,109.6,0,0,1,3.89.618,27.922,27.922,0,0,1,26.016,5.264Z" transform="translate(989.85 660.796) rotate(-132)" fill="rgba(46,51,78,0.15)"/>
  </g>
</svg>
